<svg width="138" height="1150" viewBox="0 0 138 1150" fill="none" xmlns="http://www.w3.org/2000/svg">
<path fill-rule="evenodd" clip-rule="evenodd" d="M69 136C31.9969 136 2 106.003 2 69C2 31.9969 31.9969 2 69 2C106.003 2 136 31.9969 136 69C136 105.334 107.078 134.913 71 135.971V69H69V136ZM69 138C30.8924 138 0 107.108 0 69C0 30.8924 30.8924 0 69 0C107.108 0 138 30.8924 138 69C138 106.439 108.183 136.913 71 137.972V253.028C108.183 254.087 138 284.561 138 322C138 359.439 108.183 389.913 71 390.972V506.028C108.183 507.087 138 537.561 138 575C138 612.439 108.183 642.913 71 643.972V759.028C108.183 760.087 138 790.561 138 828C138 865.439 108.183 895.913 71 896.972V1012.03C108.183 1013.09 138 1043.56 138 1081C138 1119.11 107.108 1150 69 1150C30.8924 1150 0 1119.11 0 1081C0 1042.89 30.8924 1012 69 1012V897C30.8924 897 0 866.108 0 828C0 789.892 30.8924 759 69 759V644C30.8924 644 0 613.108 0 575C0 536.892 30.8924 506 69 506V391C30.8924 391 0 360.108 0 322C0 283.892 30.8924 253 69 253V138ZM69 1014C31.9969 1014 2 1044 2 1081C2 1118 31.9969 1148 69 1148C106.003 1148 136 1118 136 1081C136 1044.67 107.078 1015.09 71 1014.03V1081H69V1014ZM2 828C2 790.997 31.9969 761 69 761V895C31.9969 895 2 865.003 2 828ZM136 828C136 791.666 107.078 762.087 71 761.029V894.971C107.078 893.913 136 864.334 136 828ZM69 508C31.9969 508 2 537.997 2 575C2 612.003 31.9969 642 69 642V508ZM71 641.971C107.078 640.913 136 611.334 136 575C136 538.666 107.078 509.087 71 508.029V641.971ZM2 322C2 284.997 31.9969 255 69 255V389C31.9969 389 2 359.003 2 322ZM136 322C136 285.666 107.078 256.087 71 255.029V388.971C107.078 387.913 136 358.334 136 322Z" fill="#437FE1"/>
</svg>
