<svg width="70" height="70" viewBox="0 0 70 70" fill="none" xmlns="http://www.w3.org/2000/svg">
<g id="lamp">
<g id="Group 132">
<path id="Vector" d="M35 3.5V14.7" stroke="#437FE1" stroke-width="2.5" stroke-linecap="round" stroke-linejoin="round"/>
<path id="Vector_2" d="M13.2161 12.516L21.1401 20.44" stroke="#437FE1" stroke-width="2.5" stroke-linecap="round" stroke-linejoin="round"/>
<path id="Vector_3" d="M4.19995 34.3H15.4" stroke="#437FE1" stroke-width="2.5" stroke-linecap="round" stroke-linejoin="round"/>
<path id="Vector_4" d="M13.2161 56.084L21.1401 48.16" stroke="#437FE1" stroke-width="2.5" stroke-linecap="round" stroke-linejoin="round"/>
<path id="Vector_5" d="M56.7841 56.084L48.8601 48.16" stroke="#437FE1" stroke-width="2.5" stroke-linecap="round" stroke-linejoin="round"/>
<path id="Vector_6" d="M65.8001 34.3H54.6001" stroke="#437FE1" stroke-width="2.5" stroke-linecap="round" stroke-linejoin="round"/>
<path id="Vector_7" d="M56.7841 12.516L48.8601 20.44" stroke="#437FE1" stroke-width="2.5" stroke-linecap="round" stroke-linejoin="round"/>
<path id="Vector_8" d="M40.5999 65.1H39.1999L37.7999 66.5H34.9999H32.1999L30.7999 65.1H29.3999" stroke="#437FE1" stroke-width="2.5" stroke-linejoin="round"/>
<path id="Vector_9" d="M26.6001 56.7H43.4001" stroke="#437FE1" stroke-width="2.5" stroke-linejoin="round"/>
<path id="Vector_10" d="M28 60.9H42" stroke="#437FE1" stroke-width="2.5" stroke-linejoin="round"/>
<path id="Vector_11" d="M42 53.9V51.1C42 48.566 42.882 46.242 44.632 44.45C47.278 41.748 49 38.416 49 34.3C49 26.572 42.728 20.3 35 20.3C27.272 20.3 21 26.572 21 34.3C21 38.416 22.722 41.748 25.368 44.45C27.118 46.242 28 48.566 28 51.1V53.9" stroke="#437FE1" stroke-width="2.5" stroke-linejoin="round"/>
<path id="Vector_12" d="M35 53.9V42.7" stroke="#437FE1" stroke-width="2.5" stroke-linejoin="round"/>
<path id="Vector_13" d="M32.2 39.9L35 42.7L37.8 39.9" stroke="#437FE1" stroke-width="2.5" stroke-linejoin="round"/>
<path id="Vector_14" d="M25.354 11.018L27.496 16.198" stroke="#437FE1" stroke-width="2.5" stroke-linecap="round" stroke-linejoin="round"/>
<path id="Vector_15" d="M11.718 24.654L16.898 26.796" stroke="#437FE1" stroke-width="2.5" stroke-linecap="round" stroke-linejoin="round"/>
<path id="Vector_16" d="M11.718 43.946L16.898 41.804" stroke="#437FE1" stroke-width="2.5" stroke-linecap="round" stroke-linejoin="round"/>
<path id="Vector_17" d="M58.2821 43.946L53.1021 41.804" stroke="#437FE1" stroke-width="2.5" stroke-linecap="round" stroke-linejoin="round"/>
<path id="Vector_18" d="M58.2821 24.654L53.1021 26.796" stroke="#437FE1" stroke-width="2.5" stroke-linecap="round" stroke-linejoin="round"/>
<path id="Vector_19" d="M44.6459 11.018L42.5039 16.198" stroke="#437FE1" stroke-width="2.5" stroke-linecap="round" stroke-linejoin="round"/>
</g>
</g>
</svg>
