<svg width="70" height="70" viewBox="0 0 70 70" fill="none" xmlns="http://www.w3.org/2000/svg">
<g id="ecom">
<g id="Group 134">
<path id="Vector" d="M55 18.2414V12.4483C55 11.6481 54.359 11 53.5676 11H3.43243C2.64101 11 2 11.6481 2 12.4483V51.5517C2 52.3519 2.64101 53 3.43243 53H27.7838" stroke="#437FE1" stroke-width="2.5" stroke-linecap="round" stroke-linejoin="round"/>
<path id="Vector_2" d="M2 46H28" stroke="#437FE1" stroke-width="2.5" stroke-linecap="round" stroke-linejoin="round"/>
<path id="Vector_3" d="M19 59H28" stroke="#437FE1" stroke-width="2.5" stroke-linecap="round" stroke-linejoin="round"/>
<path id="Vector_4" d="M24 53V59" stroke="#437FE1" stroke-width="2.5" stroke-linecap="round" stroke-linejoin="round"/>
<path id="Vector_5" d="M47.95 59H33.45C32.6489 59 32 58.3556 32 57.56V24.44C32 23.6444 32.6489 23 33.45 23H59.55C60.3511 23 61 23.6444 61 24.44V28.76" stroke="#437FE1" stroke-width="2.5" stroke-linecap="round" stroke-linejoin="round"/>
<path id="Vector_6" d="M66.5455 33H53.4545C52.6512 33 52 33.6467 52 34.4444V57.5556C52 58.3533 52.6512 59 53.4545 59H66.5455C67.3488 59 68 58.3533 68 57.5556V34.4444C68 33.6467 67.3488 33 66.5455 33Z" stroke="#437FE1" stroke-width="2.5" stroke-linecap="round" stroke-linejoin="round"/>
<path id="Vector_7" d="M59 54H61" stroke="#437FE1" stroke-width="2.5" stroke-linecap="round" stroke-linejoin="round"/>
<path id="Vector_8" d="M46 54H48" stroke="#437FE1" stroke-width="2.5" stroke-linecap="round" stroke-linejoin="round"/>
</g>
</g>
</svg>
