<svg width="82" height="82" viewBox="0 0 82 82" fill="none" xmlns="http://www.w3.org/2000/svg">
<g id="delivery">
<g id="Group 136">
<path id="Vector" d="M30.0968 58.5814C32.3129 56.5264 32.6777 53.3166 30.9116 51.412C29.1456 49.5075 25.9174 49.6295 23.7013 51.6845C21.4852 53.7395 21.1204 56.9493 22.8865 58.8538C24.6525 60.7583 27.8807 60.6364 30.0968 58.5814Z" stroke="#437FE1" stroke-width="2.5" stroke-miterlimit="10"/>
<path id="Vector_2" d="M16.7986 21.3199H59.0719L53.9526 55.1386H31.9705" stroke="#437FE1" stroke-width="2.5" stroke-linecap="round" stroke-linejoin="round"/>
<path id="Vector_3" d="M21.825 55.1386H15.0613L16.0843 48.3749" stroke="#437FE1" stroke-width="2.5" stroke-linecap="round" stroke-linejoin="round"/>
<path id="Vector_4" d="M53.9526 55.1385H60.7164" stroke="#437FE1" stroke-width="2.5" stroke-linecap="round" stroke-linejoin="round"/>
<path id="Vector_5" d="M68.986 58.5789C71.2021 56.5239 71.5669 53.3141 69.8008 51.4096C68.0347 49.5051 64.8065 49.6271 62.5905 51.6821C60.3744 53.7371 60.0096 56.9469 61.7756 58.8514C63.5417 60.7559 66.7699 60.6339 68.986 58.5789Z" stroke="#437FE1" stroke-width="2.5" stroke-miterlimit="10"/>
<path id="Vector_6" d="M58.0491 28.0837H64.8508C67.271 28.0837 68.5011 28.6692 69.5474 30.6793L74.1489 39.7258C74.1489 39.7258 77.1249 43.5558 77.8224 44.6443C78.5199 45.7328 78.9046 46.684 78.6489 48.3749C78.3931 50.0659 77.6258 55.1387 77.6258 55.1387H70.8621" stroke="#437FE1" stroke-width="2.5" stroke-linecap="round" stroke-linejoin="round"/>
<path id="Vector_7" d="M62.4539 36.4686L63.3606 39.9202L68.8139 40.7657" stroke="#437FE1" stroke-width="2.5" stroke-linecap="round" stroke-linejoin="round"/>
<path id="Vector_8" d="M3.27124 28.0837H21.8715" stroke="#437FE1" stroke-width="2.5" stroke-linecap="round" stroke-linejoin="round"/>
<path id="Vector_9" d="M13.4167 34.8474H28.6351" stroke="#437FE1" stroke-width="2.5" stroke-linecap="round" stroke-linejoin="round"/>
<path id="Vector_10" d="M4.96216 41.6111H21.8715" stroke="#437FE1" stroke-width="2.5" stroke-linecap="round" stroke-linejoin="round"/>
</g>
</g>
</svg>
