<svg width="70" height="70" viewBox="0 0 70 70" fill="none" xmlns="http://www.w3.org/2000/svg">
<g id="call">
<g id="Group 135">
<path id="Vector" d="M38.4998 58.8H30.0998C28.5534 58.8 27.2998 60.0537 27.2998 61.6V63C27.2998 64.5464 28.5534 65.8 30.0998 65.8H38.4998C40.0462 65.8 41.2998 64.5464 41.2998 63V61.6C41.2998 60.0537 40.0462 58.8 38.4998 58.8Z" stroke="#437FE1" stroke-width="2.5" stroke-miterlimit="10"/>
<path id="Vector_2" d="M56.6999 28V23.66C56.6999 12.908 46.6759 4.20001 34.2999 4.20001C21.9239 4.20001 11.8999 12.908 11.8999 23.66V28" stroke="#437FE1" stroke-width="2.5" stroke-miterlimit="10"/>
<path id="Vector_3" d="M41.2998 62.034C48.8038 59.892 54.5438 54.404 56.2098 47.6" stroke="#437FE1" stroke-width="2.5" stroke-miterlimit="10"/>
<path id="Vector_4" d="M63.4898 29.288L60.3118 27.384C59.0098 26.6 57.3438 26.81 56.2658 27.888C55.6498 28.504 55.2998 29.358 55.2998 30.226V45.304C55.2998 46.186 55.6498 47.026 56.2658 47.642C57.3438 48.72 59.0098 48.916 60.3118 48.146L63.4898 46.242C64.4838 45.64 65.0998 44.562 65.0998 43.4V32.13C65.0998 30.968 64.4838 29.89 63.4898 29.288Z" stroke="#437FE1" stroke-width="2.5" stroke-miterlimit="10"/>
<path id="Vector_5" d="M6.5099 29.288L9.6879 27.384C10.9899 26.6 12.6559 26.81 13.7339 27.888C14.3499 28.504 14.6999 29.358 14.6999 30.226V45.304C14.6999 46.186 14.3499 47.026 13.7339 47.642C12.6559 48.72 10.9899 48.916 9.6879 48.146L6.5099 46.242C5.5159 45.64 4.8999 44.562 4.8999 43.4V32.13C4.8999 30.968 5.5159 29.89 6.5099 29.288Z" stroke="#437FE1" stroke-width="2.5" stroke-miterlimit="10"/>
</g>
</g>
</svg>
