<svg width="100" height="760" viewBox="0 0 100 760" fill="none" xmlns="http://www.w3.org/2000/svg">
<g clip-path="url(#clip0_386_113)">
<line x1="51.4706" y1="50" x2="51.4706" y2="740" stroke="url(#paint0_linear_386_113)" stroke-width="2.94118"/>
<circle cx="50" cy="50" r="48.5294" stroke="url(#paint1_linear_386_113)" stroke-width="2.94118"/>
<circle cx="50" cy="215" r="48.5294" stroke="url(#paint2_linear_386_113)" stroke-width="2.94118"/>
<circle cx="50" cy="380" r="48.5294" stroke="url(#paint3_linear_386_113)" stroke-width="2.94118"/>
<circle cx="50" cy="545" r="48.5294" stroke="url(#paint4_linear_386_113)" stroke-width="2.94118"/>
<circle cx="50" cy="710" r="48.5294" stroke="url(#paint5_linear_386_113)" stroke-width="2.94118"/>
<circle cx="50" cy="50.0588" r="47.0588" fill="#F3F8FF"/>
<circle cx="50" cy="215" r="47.0588" fill="#F3F8FF"/>
<circle cx="50" cy="380" r="47.0588" fill="#F3F8FF"/>
<circle cx="50" cy="545.059" r="47.0588" fill="#F3F8FF"/>
<circle cx="50" cy="710.059" r="47.0588" fill="#F3F8FF"/>
</g>
<defs>
<linearGradient id="paint0_linear_386_113" x1="50" y1="50" x2="50" y2="740" gradientUnits="userSpaceOnUse">
<stop stop-color="#437FE1"/>
<stop offset="1" stop-color="#83B3FF"/>
</linearGradient>
<linearGradient id="paint1_linear_386_113" x1="50" y1="0" x2="50" y2="100" gradientUnits="userSpaceOnUse">
<stop stop-color="#437FE1"/>
<stop offset="1" stop-color="#83B3FF"/>
</linearGradient>
<linearGradient id="paint2_linear_386_113" x1="50" y1="165" x2="50" y2="265" gradientUnits="userSpaceOnUse">
<stop stop-color="#437FE1"/>
<stop offset="1" stop-color="#83B3FF"/>
</linearGradient>
<linearGradient id="paint3_linear_386_113" x1="50" y1="330" x2="50" y2="430" gradientUnits="userSpaceOnUse">
<stop stop-color="#437FE1"/>
<stop offset="1" stop-color="#83B3FF"/>
</linearGradient>
<linearGradient id="paint4_linear_386_113" x1="50" y1="495" x2="50" y2="595" gradientUnits="userSpaceOnUse">
<stop stop-color="#437FE1"/>
<stop offset="1" stop-color="#83B3FF"/>
</linearGradient>
<linearGradient id="paint5_linear_386_113" x1="50" y1="660" x2="50" y2="760" gradientUnits="userSpaceOnUse">
<stop stop-color="#437FE1"/>
<stop offset="1" stop-color="#83B3FF"/>
</linearGradient>
<clipPath id="clip0_386_113">
<rect width="100" height="760" fill="white"/>
</clipPath>
</defs>
</svg>
