<svg width="70" height="70" viewBox="0 0 70 70" fill="none" xmlns="http://www.w3.org/2000/svg">
<g id="factory">
<g id="Group 133">
<path id="Vector" d="M61.6 56.616H58.8" stroke="#437FE1" stroke-width="2.5" stroke-linejoin="round"/>
<path id="Vector_2" d="M11.1999 56.616H8.3999" stroke="#437FE1" stroke-width="2.5" stroke-linejoin="round"/>
<path id="Vector_3" d="M19.6 56.616H16.8" stroke="#437FE1" stroke-width="2.5" stroke-linejoin="round"/>
<path id="Vector_4" d="M28 56.616H25.2" stroke="#437FE1" stroke-width="2.5" stroke-linejoin="round"/>
<path id="Vector_5" d="M36.4001 56.616H33.6001" stroke="#437FE1" stroke-width="2.5" stroke-linejoin="round"/>
<path id="Vector_6" d="M44.8 56.616H42" stroke="#437FE1" stroke-width="2.5" stroke-linejoin="round"/>
<path id="Vector_7" d="M53.1999 56.616H50.3999" stroke="#437FE1" stroke-width="2.5" stroke-linejoin="round"/>
<path id="Vector_8" d="M67.2 56.616C67.2 53.522 64.694 51.016 61.6 51.016H8.40005C5.30605 51.016 2.80005 53.522 2.80005 56.616C2.80005 59.71 5.30605 62.216 8.40005 62.216H61.6C64.694 62.216 67.2 59.71 67.2 56.616Z" stroke="#437FE1" stroke-width="2.5" stroke-linejoin="round"/>
<path id="Vector_9" d="M63.588 48.216C63.588 47.264 63.518 46.298 63.35 45.332L67.2 43.414L64.428 36.708L60.354 38.066C59.22 36.484 57.848 35.126 56.308 34.034L57.666 29.946L50.96 27.174L49.028 31.024C47.166 30.716 45.234 30.702 43.316 31.024L41.398 27.174L34.692 29.946L36.05 34.02C34.468 35.154 33.11 36.526 32.018 38.066L27.93 36.708L25.158 43.414L29.008 45.346C28.854 46.298 28.77 47.25 28.77 48.216" stroke="#437FE1" stroke-width="2.5" stroke-linejoin="round"/>
<path id="Vector_10" d="M3.63989 24.864L5.47389 29.302L8.90389 27.874C9.58989 28.84 10.4299 29.666 11.3679 30.338L9.93989 33.768L14.3779 35.602L15.8059 32.172C16.9399 32.368 18.1159 32.368 19.2919 32.172L20.7199 35.602L25.1579 33.768L23.7299 30.338C24.6959 29.652 25.5219 28.812 26.1939 27.874L29.6239 29.302L31.4579 24.864L28.0279 23.436C28.2239 22.302 28.2239 21.126 28.0279 19.95L31.4579 18.522L29.6239 14.084L26.1939 15.512C25.5079 14.546 24.6679 13.72 23.7299 13.048L25.1579 9.618L20.7199 7.784L19.2919 11.214C18.1579 11.018 16.9819 11.018 15.8059 11.214L14.3779 7.784L9.93989 9.618L11.3679 13.048C10.4019 13.734 9.57589 14.574 8.90389 15.512L5.47389 14.084L3.63989 18.522L7.06989 19.95C6.87389 21.084 6.87389 22.26 7.06989 23.436L3.63989 24.864Z" stroke="#437FE1" stroke-width="2.5" stroke-linejoin="round"/>
<path id="Vector_11" d="M13.2439 23.492C12.2639 21.112 13.3839 18.382 15.7639 17.402C18.1439 16.422 20.8739 17.542 21.8539 19.922C22.8339 22.302 21.7139 25.032 19.3339 26.012C16.9539 26.992 14.2239 25.872 13.2439 23.492Z" stroke="#437FE1" stroke-width="2.5" stroke-linejoin="round"/>
<path id="Vector_12" d="M39.2 48.216C39.2 44.352 42.336 41.216 46.2 41.216C50.064 41.216 53.2 44.352 53.2 48.216" stroke="#437FE1" stroke-width="2.5" stroke-linejoin="round"/>
</g>
</g>
</svg>
