<svg width="32" height="32" viewBox="0 0 32 32" fill="none" xmlns="http://www.w3.org/2000/svg">
<path d="M13.3333 6.66667L16 4M10.6667 21.3333L21.3333 10.6667M16 28L18.6667 25.3333M22 25.3333C22.8841 25.3333 23.7319 24.9821 24.357 24.357C24.9821 23.7319 25.3333 22.8841 25.3333 22C25.3333 21.1159 24.9821 20.2681 24.357 19.643C23.7319 19.0179 22.8841 18.6667 22 18.6667C21.1159 18.6667 20.2681 19.0179 19.643 19.643C19.0179 20.2681 18.6667 21.1159 18.6667 22C18.6667 22.8841 19.0179 23.7319 19.643 24.357C20.2681 24.9821 21.1159 25.3333 22 25.3333ZM10 13.3333C10.8841 13.3333 11.7319 12.9821 12.357 12.357C12.9821 11.7319 13.3333 10.8841 13.3333 10C13.3333 9.11595 12.9821 8.2681 12.357 7.64298C11.7319 7.01786 10.8841 6.66667 10 6.66667C9.11595 6.66667 8.2681 7.01786 7.64298 7.64298C7.01786 8.2681 6.66667 9.11595 6.66667 10C6.66667 10.8841 7.01786 11.7319 7.64298 12.357C8.2681 12.9821 9.11595 13.3333 10 13.3333ZM7.33333 28C8.21739 28 9.06523 27.6488 9.69036 27.0237C10.3155 26.3986 10.6667 25.5507 10.6667 24.6667C10.6667 23.7826 10.3155 22.9348 9.69036 22.3096C9.06523 21.6845 8.21739 21.3333 7.33333 21.3333C6.44928 21.3333 5.60143 21.6845 4.97631 22.3096C4.35119 22.9348 4 23.7826 4 24.6667C4 25.5507 4.35119 26.3986 4.97631 27.0237C5.60143 27.6488 6.44928 28 7.33333 28ZM24.6667 10.6667C25.5507 10.6667 26.3986 10.3155 27.0237 9.69036C27.6488 9.06523 28 8.21739 28 7.33333C28 6.44928 27.6488 5.60143 27.0237 4.97631C26.3986 4.35119 25.5507 4 24.6667 4C23.7826 4 22.9348 4.35119 22.3096 4.97631C21.6845 5.60143 21.3333 6.44928 21.3333 7.33333C21.3333 8.21739 21.6845 9.06523 22.3096 9.69036C22.9348 10.3155 23.7826 10.6667 24.6667 10.6667Z" stroke="white" stroke-width="2" stroke-linecap="round" stroke-linejoin="round"/>
</svg>
