<svg width="11" height="12" viewBox="0 0 11 12" fill="none" xmlns="http://www.w3.org/2000/svg">
<path d="M10.5 5.54102C10.5 2.77959 8.26142 0.541016 5.5 0.541016C2.73858 0.541016 0.5 2.77959 0.5 5.54102C0.5 8.30244 2.73858 10.541 5.5 10.541C8.26142 10.541 10.5 8.30244 10.5 5.54102Z" fill="#E9ECF0"/>
<path d="M5.50006 7.89807C6.80206 7.89807 7.85706 6.84308 7.85706 5.54108C7.85706 4.23908 6.80206 3.18408 5.50006 3.18408C4.19806 3.18408 3.14307 4.23908 3.14307 5.54108C3.14307 6.84308 4.19806 7.89807 5.50006 7.89807Z" fill="#83B3FF" fill-opacity="0.85"/>
<path d="M5.5 10.541C8.261 10.541 10.5 8.30202 10.5 5.54102C10.5 2.78002 8.261 0.541016 5.5 0.541016C2.739 0.541016 0.5 2.78002 0.5 5.54102C0.5 8.30202 2.739 10.541 5.5 10.541Z" stroke="#83B3FF" stroke-opacity="0.85"/>
</svg>
